<?xml version="1.0" standalone="no"?>
<!DOCTYPE svg PUBLIC "-//W3C//DTD SVG 1.1//EN"
  "http://www.w3.org/Graphics/SVG/1.1/DTD/svg11.dtd">
<svg width="531.49px" height="531.49px" version="1.1"
    xmlns="http://www.w3.org/2000/svg"
    xmlns:xlink="http://www.w3.org/1999/xlink">
<desc>Veusz output document</desc>
<defs>
<clipPath id="c0">
<path d="m0,0l531.49,0l0,531.49l-531.49,0l0,-531.49"/>
</clipPath>
<clipPath id="c1">
<path d="m319.03,46.38l35.43,0l0,26.2l-35.43,0l0,-26.2"/>
</clipPath>
<clipPath id="c2">
<path d="m319.03,72.58l35.43,0l0,26.2l-35.43,0l0,-26.2"/>
</clipPath>
<clipPath id="c3">
<path d="m319.03,98.78l35.43,0l0,26.2l-35.43,0l0,-26.2"/>
</clipPath>
<clipPath id="c4">
<path d="m319.03,124.98l35.43,0l0,26.2l-35.43,0l0,-26.2"/>
</clipPath>
<clipPath id="c5">
<path d="m77.95,7.08l446.45,0l0,453.54l-446.45,0l0,-453.54"/>
</clipPath>
</defs>
<g stroke-linejoin="bevel" stroke-linecap="square" stroke="#000000" fill-rule="evenodd">
<g clip-path="url(#c0)">
<g fill="#ffffff" stroke-width="1.25">
<path d="m77.95,7.08l446.45,0l0,453.54l-446.45,0l0,-453.54"/>
</g>
<g fill="#ffffff" stroke="none" stroke-width="1">
<path d="m292.83,33.28l205.37,0l0,131l-205.37,0l0,-131" id="p0"/>
</g>
<g fill="none" stroke-width="1.25">
<use xlink:href="#p0"/>
</g>
</g>
<g clip-path="url(#c1)">
<g fill="none" stroke-width="1.25">
<path d="M336.75,49l0,20.96"/>
<path d="M336.75,59.48l0,0"/>
</g>
<g fill="none" stroke-width="3.75">
<path d="M319.03,59.48l35.43,0"/>
</g>
<g fill="#000000" stroke="#ffffff" stroke-linejoin="miter" stroke-width="1.25">
<g transform="translate(336.75,59.48)">
<path d="m7.5,0c0,4.14,-3.35,7.5,-7.5,7.5c-4.14,0,-7.5,-3.35,-7.5,-7.5c0,-4.14,3.35,-7.5,7.5,-7.5c4.14,0,7.5,3.35,7.5,7.5" id="p4"/>
</g>
</g>
</g>
<g clip-path="url(#c0)">
<g fill="none" stroke-width="1">
<path d="m382.87,50.88l2.22,0l0,14.53l7.98,0l0,1.86l-10.2,0l0,-16.4m11.83,11.54l0,-7.44l2.02,0l0,7.37c0,1.16,0.22,2.03,0.68,2.62c0.45,0.58,1.13,0.87,2.04,0.87c1.09,0,1.95,-0.34,2.58,-1.04c0.63,-0.69,0.95,-1.64,0.95,-2.84l0,-6.97l2.02,0l0,12.3l-2.02,0l0,-1.88c-0.49,0.74,-1.06,1.3,-1.7,1.66c-0.64,0.36,-1.4,0.54,-2.25,0.54c-1.41,0,-2.48,-0.43,-3.21,-1.31c-0.73,-0.87,-1.09,-2.16,-1.09,-3.85m24.04,-5.08c0.5,-0.9,1.1,-1.57,1.81,-2.01c0.7,-0.43,1.53,-0.64,2.48,-0.64c1.28,0,2.26,0.44,2.96,1.34c0.69,0.89,1.04,2.17,1.04,3.82l0,7.42l-2.03,0l0,-7.36c0,-1.17,-0.2,-2.05,-0.62,-2.62c-0.41,-0.57,-1.05,-0.85,-1.91,-0.85c-1.04,0,-1.87,0.34,-2.48,1.04c-0.6,0.69,-0.91,1.64,-0.91,2.84l0,6.95l-2.03,0l0,-7.36c0,-1.18,-0.2,-2.06,-0.62,-2.63c-0.41,-0.56,-1.06,-0.85,-1.93,-0.85c-1.03,0,-1.85,0.34,-2.46,1.04c-0.6,0.69,-0.91,1.64,-0.91,2.83l0,6.95l-2.03,0l0,-12.3l2.03,0l0,1.91c0.46,-0.75,1.01,-1.31,1.65,-1.66c0.64,-0.35,1.4,-0.53,2.29,-0.53c0.89,0,1.65,0.22,2.27,0.68c0.62,0.45,1.08,1.11,1.38,1.97m24.52,-5c-1.14,0,-2,0.56,-2.57,1.68c-0.57,1.12,-0.86,2.81,-0.86,5.07c0,2.24,0.28,3.93,0.86,5.05c0.57,1.12,1.43,1.68,2.57,1.68c1.15,0,2.01,-0.56,2.58,-1.68c0.57,-1.12,0.86,-2.81,0.86,-5.05c0,-2.25,-0.28,-3.94,-0.86,-5.07c-0.57,-1.12,-1.43,-1.68,-2.58,-1.68m0,-1.75c1.83,0,3.24,0.72,4.21,2.18c0.97,1.45,1.45,3.56,1.45,6.33c0,2.76,-0.48,4.86,-1.45,6.32c-0.97,1.45,-2.37,2.18,-4.21,2.18c-1.83,0,-3.24,-0.72,-4.21,-2.18c-0.97,-1.45,-1.45,-3.56,-1.45,-6.32c0,-2.76,0.48,-4.88,1.45,-6.33c0.97,-1.45,2.37,-2.18,4.21,-2.18m9.56,13.9l2.31,0l0,2.79l-2.31,0l0,-2.79m9.06,0.92l7.74,0l0,1.86l-10.41,0l0,-1.86c0.84,-0.87,1.98,-2.04,3.44,-3.51c1.45,-1.46,2.36,-2.41,2.74,-2.83c0.71,-0.79,1.2,-1.47,1.48,-2.02c0.28,-0.55,0.42,-1.09,0.42,-1.63c0,-0.87,-0.3,-1.58,-0.91,-2.13c-0.61,-0.54,-1.4,-0.82,-2.39,-0.82c-0.69,0,-1.42,0.12,-2.2,0.36c-0.77,0.24,-1.59,0.6,-2.47,1.09l0,-2.24c0.89,-0.35,1.72,-0.63,2.5,-0.81c0.77,-0.18,1.48,-0.27,2.13,-0.27c1.69,0,3.05,0.42,4.06,1.27c1.01,0.85,1.51,1.98,1.51,3.4c0,0.67,-0.12,1.31,-0.37,1.91c-0.25,0.6,-0.71,1.31,-1.37,2.13c-0.18,0.21,-0.76,0.82,-1.74,1.84c-0.98,1.01,-2.36,2.43,-4.15,4.25" fill="#000000" stroke="none" fill-opacity="1"/>
</g>
</g>
<g clip-path="url(#c2)">
<g fill="none" stroke-width="1.25">
<path d="M336.75,75.2l0,20.96"/>
<path d="M336.75,85.68l0,0"/>
</g>
<g fill="none" stroke-width="3.75">
<path d="M319.03,85.68l35.43,0"/>
</g>
<g fill="#000000" stroke="#ffffff" stroke-linejoin="miter" stroke-width="1.25">
<g transform="translate(336.75,85.68)">
<path d="m0,-9l7.79,13.5l-15.58,0l7.79,-13.5" id="p3"/>
</g>
</g>
</g>
<g clip-path="url(#c0)">
<g fill="none" stroke-width="1">
<path d="m382.87,77.08l2.22,0l0,14.53l7.98,0l0,1.86l-10.2,0l0,-16.4m11.83,11.54l0,-7.44l2.02,0l0,7.37c0,1.16,0.22,2.03,0.68,2.62c0.45,0.58,1.13,0.87,2.04,0.87c1.09,0,1.95,-0.34,2.58,-1.04c0.63,-0.69,0.95,-1.64,0.95,-2.84l0,-6.97l2.02,0l0,12.3l-2.02,0l0,-1.88c-0.49,0.74,-1.06,1.3,-1.7,1.66c-0.64,0.36,-1.4,0.54,-2.25,0.54c-1.41,0,-2.48,-0.43,-3.21,-1.31c-0.73,-0.87,-1.09,-2.16,-1.09,-3.85m24.04,-5.08c0.5,-0.9,1.1,-1.57,1.81,-2.01c0.7,-0.43,1.53,-0.64,2.48,-0.64c1.28,0,2.26,0.44,2.96,1.34c0.69,0.89,1.04,2.17,1.04,3.82l0,7.42l-2.03,0l0,-7.36c0,-1.17,-0.2,-2.05,-0.62,-2.62c-0.41,-0.57,-1.05,-0.85,-1.91,-0.85c-1.04,0,-1.87,0.34,-2.48,1.04c-0.6,0.69,-0.91,1.64,-0.91,2.84l0,6.95l-2.03,0l0,-7.36c0,-1.18,-0.2,-2.06,-0.62,-2.63c-0.41,-0.56,-1.06,-0.85,-1.93,-0.85c-1.03,0,-1.85,0.34,-2.46,1.04c-0.6,0.69,-0.91,1.64,-0.91,2.83l0,6.95l-2.03,0l0,-12.3l2.03,0l0,1.91c0.46,-0.75,1.01,-1.31,1.65,-1.66c0.64,-0.35,1.4,-0.53,2.29,-0.53c0.89,0,1.65,0.22,2.27,0.68c0.62,0.45,1.08,1.11,1.38,1.97m24.52,-5c-1.14,0,-2,0.56,-2.57,1.68c-0.57,1.12,-0.86,2.81,-0.86,5.07c0,2.24,0.28,3.93,0.86,5.05c0.57,1.12,1.43,1.68,2.57,1.68c1.15,0,2.01,-0.56,2.58,-1.68c0.57,-1.12,0.86,-2.81,0.86,-5.05c0,-2.25,-0.28,-3.94,-0.86,-5.07c-0.57,-1.12,-1.43,-1.68,-2.58,-1.68m0,-1.75c1.83,0,3.24,0.72,4.21,2.18c0.97,1.45,1.45,3.56,1.45,6.33c0,2.76,-0.48,4.86,-1.45,6.32c-0.97,1.45,-2.37,2.18,-4.21,2.18c-1.83,0,-3.24,-0.72,-4.21,-2.18c-0.97,-1.45,-1.45,-3.56,-1.45,-6.32c0,-2.76,0.48,-4.88,1.45,-6.33c0.97,-1.45,2.37,-2.18,4.21,-2.18m9.56,13.9l2.31,0l0,2.79l-2.31,0l0,-2.79m13.87,-6.05c1.06,0.22,1.89,0.69,2.48,1.41c0.59,0.71,0.89,1.6,0.89,2.65c0,1.61,-0.55,2.87,-1.67,3.75c-1.11,0.88,-2.69,1.32,-4.74,1.32c-0.68,0,-1.39,-0.06,-2.12,-0.2c-0.72,-0.13,-1.48,-0.33,-2.25,-0.6l0,-2.14c0.61,0.35,1.28,0.63,2.02,0.81c0.73,0.18,1.49,0.27,2.29,0.27c1.39,0,2.45,-0.27,3.18,-0.82c0.72,-0.54,1.09,-1.34,1.09,-2.39c0,-0.96,-0.33,-1.72,-1.01,-2.26c-0.67,-0.54,-1.62,-0.81,-2.82,-0.81l-1.91,0l0,-1.82l2,0c1.09,0,1.92,-0.21,2.5,-0.65c0.57,-0.43,0.86,-1.06,0.86,-1.88c0,-0.84,-0.29,-1.48,-0.89,-1.93c-0.59,-0.45,-1.45,-0.67,-2.56,-0.67c-0.6,0,-1.25,0.06,-1.95,0.19c-0.69,0.13,-1.46,0.33,-2.29,0.61l0,-1.97c0.84,-0.23,1.63,-0.41,2.36,-0.52c0.73,-0.11,1.42,-0.17,2.08,-0.17c1.68,0,3.01,0.38,3.99,1.14c0.98,0.76,1.47,1.8,1.47,3.1c0,0.9,-0.26,1.67,-0.78,2.3c-0.52,0.62,-1.26,1.06,-2.21,1.3" fill="#000000" stroke="none" fill-opacity="1"/>
</g>
</g>
<g clip-path="url(#c3)">
<g fill="none" stroke-width="1.25">
<path d="M336.75,101.4l0,20.96"/>
<path d="M336.75,111.88l0,0"/>
</g>
<g fill="none" stroke-width="3.75">
<path d="M319.03,111.88l35.43,0"/>
</g>
<g fill="#000000" stroke="#ffffff" stroke-linejoin="miter" stroke-width="1.25">
<g transform="translate(336.75,111.88)">
<path d="m0,9l7.79,-13.5l-15.58,0l7.79,13.5" id="p2"/>
</g>
</g>
</g>
<g clip-path="url(#c0)">
<g fill="none" stroke-width="1">
<path d="m382.87,103.28l2.22,0l0,14.53l7.98,0l0,1.86l-10.2,0l0,-16.4m11.83,11.54l0,-7.44l2.02,0l0,7.37c0,1.16,0.22,2.03,0.68,2.62c0.45,0.58,1.13,0.87,2.04,0.87c1.09,0,1.95,-0.34,2.58,-1.04c0.63,-0.69,0.95,-1.64,0.95,-2.84l0,-6.97l2.02,0l0,12.3l-2.02,0l0,-1.88c-0.49,0.74,-1.06,1.3,-1.7,1.66c-0.64,0.36,-1.4,0.54,-2.25,0.54c-1.41,0,-2.48,-0.43,-3.21,-1.31c-0.73,-0.87,-1.09,-2.16,-1.09,-3.85m24.04,-5.08c0.5,-0.9,1.1,-1.57,1.81,-2.01c0.7,-0.43,1.53,-0.64,2.48,-0.64c1.28,0,2.26,0.44,2.96,1.34c0.69,0.89,1.04,2.17,1.04,3.82l0,7.42l-2.03,0l0,-7.36c0,-1.17,-0.2,-2.05,-0.62,-2.62c-0.41,-0.57,-1.05,-0.85,-1.91,-0.85c-1.04,0,-1.87,0.34,-2.48,1.04c-0.6,0.69,-0.91,1.64,-0.91,2.84l0,6.95l-2.03,0l0,-7.36c0,-1.18,-0.2,-2.06,-0.62,-2.63c-0.41,-0.56,-1.06,-0.85,-1.93,-0.85c-1.03,0,-1.85,0.34,-2.46,1.04c-0.6,0.69,-0.91,1.64,-0.91,2.83l0,6.95l-2.03,0l0,-12.3l2.03,0l0,1.91c0.46,-0.75,1.01,-1.31,1.65,-1.66c0.64,-0.35,1.4,-0.53,2.29,-0.53c0.89,0,1.65,0.22,2.27,0.68c0.62,0.45,1.08,1.11,1.38,1.97m24.52,-5c-1.14,0,-2,0.56,-2.57,1.68c-0.57,1.12,-0.86,2.81,-0.86,5.07c0,2.24,0.28,3.93,0.86,5.05c0.57,1.12,1.43,1.68,2.57,1.68c1.15,0,2.01,-0.56,2.58,-1.68c0.57,-1.12,0.86,-2.81,0.86,-5.05c0,-2.25,-0.28,-3.94,-0.86,-5.07c-0.57,-1.12,-1.43,-1.68,-2.58,-1.68m0,-1.75c1.83,0,3.24,0.72,4.21,2.18c0.97,1.45,1.45,3.56,1.45,6.33c0,2.76,-0.48,4.86,-1.45,6.32c-0.97,1.45,-2.37,2.18,-4.21,2.18c-1.83,0,-3.24,-0.72,-4.21,-2.18c-0.97,-1.45,-1.45,-3.56,-1.45,-6.32c0,-2.76,0.48,-4.88,1.45,-6.33c0.97,-1.45,2.37,-2.18,4.21,-2.18m9.56,13.9l2.31,0l0,2.79l-2.31,0l0,-2.79m7.17,-13.61l8.71,0l0,1.86l-6.67,0l0,4.02c0.32,-0.1,0.64,-0.19,0.96,-0.24c0.32,-0.05,0.64,-0.08,0.96,-0.08c1.83,0,3.28,0.5,4.35,1.5c1.06,1,1.6,2.36,1.6,4.07c0,1.76,-0.54,3.13,-1.64,4.11c-1.09,0.97,-2.64,1.46,-4.64,1.46c-0.68,0,-1.38,-0.05,-2.1,-0.17c-0.71,-0.11,-1.45,-0.29,-2.21,-0.52l0,-2.22c0.65,0.35,1.34,0.62,2.04,0.8c0.7,0.17,1.44,0.26,2.22,0.26c1.26,0,2.27,-0.33,3.01,-1c0.73,-0.66,1.1,-1.57,1.1,-2.71c0,-1.14,-0.36,-2.04,-1.1,-2.71c-0.73,-0.66,-1.74,-1,-3.01,-1c-0.59,0,-1.18,0.06,-1.77,0.19c-0.58,0.13,-1.19,0.33,-1.8,0.61l0,-8.24" fill="#000000" stroke="none" fill-opacity="1"/>
</g>
</g>
<g clip-path="url(#c4)">
<g fill="none" stroke-width="1.25">
<path d="M336.75,127.6l0,20.96"/>
<path d="M336.75,138.08l0,0"/>
</g>
<g fill="none" stroke-width="3.75">
<path d="M319.03,138.08l35.43,0"/>
</g>
<g fill="#000000" stroke="#ffffff" stroke-linejoin="miter" stroke-width="1.25">
<g transform="translate(336.75,138.08)">
<path d="m0,10.6l10.6,-10.6l-10.6,-10.6l-10.6,10.6l10.6,10.6" id="p1"/>
</g>
</g>
</g>
<g clip-path="url(#c0)">
<g fill="none" stroke-width="1">
<path d="m382.87,129.48l2.22,0l0,14.53l7.98,0l0,1.86l-10.2,0l0,-16.4m11.83,11.54l0,-7.44l2.02,0l0,7.37c0,1.16,0.22,2.03,0.68,2.62c0.45,0.58,1.13,0.87,2.04,0.87c1.09,0,1.95,-0.34,2.58,-1.04c0.63,-0.69,0.95,-1.64,0.95,-2.84l0,-6.97l2.02,0l0,12.3l-2.02,0l0,-1.88c-0.49,0.74,-1.06,1.3,-1.7,1.66c-0.64,0.36,-1.4,0.54,-2.25,0.54c-1.41,0,-2.48,-0.43,-3.21,-1.31c-0.73,-0.87,-1.09,-2.16,-1.09,-3.85m24.04,-5.08c0.5,-0.9,1.1,-1.57,1.81,-2.01c0.7,-0.43,1.53,-0.64,2.48,-0.64c1.28,0,2.26,0.44,2.96,1.34c0.69,0.89,1.04,2.17,1.04,3.82l0,7.42l-2.03,0l0,-7.36c0,-1.17,-0.2,-2.05,-0.62,-2.62c-0.41,-0.57,-1.05,-0.85,-1.91,-0.85c-1.04,0,-1.87,0.34,-2.48,1.04c-0.6,0.69,-0.91,1.64,-0.91,2.84l0,6.95l-2.03,0l0,-7.36c0,-1.18,-0.2,-2.06,-0.62,-2.63c-0.41,-0.56,-1.06,-0.85,-1.93,-0.85c-1.03,0,-1.85,0.34,-2.46,1.04c-0.6,0.69,-0.91,1.64,-0.91,2.83l0,6.95l-2.03,0l0,-12.3l2.03,0l0,1.91c0.46,-0.75,1.01,-1.31,1.65,-1.66c0.64,-0.35,1.4,-0.53,2.29,-0.53c0.89,0,1.65,0.22,2.27,0.68c0.62,0.45,1.08,1.11,1.38,1.97m20.15,8.07l3.62,0l0,-12.51l-3.94,0.79l0,-2.02l3.92,-0.79l2.22,0l0,14.53l3.62,0l0,1.86l-9.44,0l0,-1.86" fill="#000000" stroke="none" fill-opacity="1"/>
</g>
</g>
<g clip-path="url(#c5)">
<g fill="none" stroke-width="3.75">
<polyline fill="none" points="77.95,291.6 133.75,330.44 189.56,351.67 245.37,372.44 301.18,395.47 356.98,418.05 412.79,435.3 468.6,449.67 524.4,458.7"/>
</g>
<g fill="none" stroke-linecap="butt" stroke-width="1.25">
<path d="M77.95,291.6l0,0M133.75,332.77l0,-4.66M189.56,353.85l0,-4.36M245.37,373.87l0,-2.85M301.18,395.47l0,0M356.98,418.05l0,0M412.79,437.12l0,-3.65M468.6,449.67l0,0M524.4,460.62l0,-3.85"/>
</g>
<g fill="#000000" stroke="#ffffff" stroke-linejoin="miter" stroke-width="1.25">
<use xlink:href="#p1" x="77.95" y="291.6"/>
<use xlink:href="#p1" x="133.75" y="330.44"/>
<use xlink:href="#p1" x="189.56" y="351.67"/>
<use xlink:href="#p1" x="245.37" y="372.44"/>
<use xlink:href="#p1" x="301.18" y="395.47"/>
<use xlink:href="#p1" x="356.98" y="418.05"/>
<use xlink:href="#p1" x="412.79" y="435.3"/>
<use xlink:href="#p1" x="468.6" y="449.67"/>
<use xlink:href="#p1" x="524.4" y="458.7"/>
</g>
<g fill="none" stroke-width="3.75">
<polyline fill="none" points="77.95,208.67 133.75,248.49 189.56,277.23 245.37,303.92 301.18,327.32 356.98,344.97 412.79,361.15 468.6,372.07 524.4,381.51"/>
</g>
<g fill="none" stroke-linecap="butt" stroke-width="1.25">
<path d="M77.95,210.95l0,-4.55M133.75,250.85l0,-4.71M189.56,279.06l0,-3.65M245.37,306.03l0,-4.21M301.18,328.68l0,-2.72M356.98,346.8l0,-3.65M412.79,363.48l0,-4.66M468.6,373.9l0,-3.65M524.4,383.95l0,-4.87"/>
</g>
<g fill="#000000" stroke="#ffffff" stroke-linejoin="miter" stroke-width="1.25">
<use xlink:href="#p2" x="77.95" y="208.67"/>
<use xlink:href="#p2" x="133.75" y="248.49"/>
<use xlink:href="#p2" x="189.56" y="277.23"/>
<use xlink:href="#p2" x="245.37" y="303.92"/>
<use xlink:href="#p2" x="301.18" y="327.32"/>
<use xlink:href="#p2" x="356.98" y="344.97"/>
<use xlink:href="#p2" x="412.79" y="361.15"/>
<use xlink:href="#p2" x="468.6" y="372.07"/>
<use xlink:href="#p2" x="524.4" y="381.51"/>
</g>
<g fill="none" stroke-width="3.75">
<polyline fill="none" points="77.95,123.75 133.75,170.79 189.56,204.66 245.37,235.35 301.18,260.81 356.98,279.56 412.79,294.06 468.6,307.41 524.4,315.69"/>
</g>
<g fill="none" stroke-linecap="butt" stroke-width="1.25">
<path d="M77.95,126.99l0,-6.48M133.75,174.2l0,-6.8M189.56,207.47l0,-5.61M245.37,237.71l0,-4.71M301.18,263.53l0,-5.44M356.98,281.78l0,-4.44M412.79,297.17l0,-6.21M468.6,310.45l0,-6.08M524.4,319.2l0,-7.03"/>
</g>
<g fill="#000000" stroke="#ffffff" stroke-linejoin="miter" stroke-width="1.25">
<use xlink:href="#p3" x="77.95" y="123.75"/>
<use xlink:href="#p3" x="133.75" y="170.79"/>
<use xlink:href="#p3" x="189.56" y="204.66"/>
<use xlink:href="#p3" x="245.37" y="235.35"/>
<use xlink:href="#p3" x="301.18" y="260.81"/>
<use xlink:href="#p3" x="356.98" y="279.56"/>
<use xlink:href="#p3" x="412.79" y="294.06"/>
<use xlink:href="#p3" x="468.6" y="307.41"/>
<use xlink:href="#p3" x="524.4" y="315.69"/>
</g>
<g fill="none" stroke-width="3.75">
<polyline fill="none" points="77.95,39.82 133.75,91.01 189.56,133.53 245.37,172.13 301.18,199.02 356.98,217.84 412.79,234.94 468.6,249.45 524.4,259.61"/>
</g>
<g fill="none" stroke-linecap="butt" stroke-width="1.25">
<path d="M77.95,45.31l0,-10.97M133.75,98.33l0,-14.64M189.56,139.62l0,-12.17M245.37,177.61l0,-10.96M301.18,203.54l0,-9.03M356.98,221.85l0,-8.01M412.79,239.62l0,-9.35M468.6,252.97l0,-7.03M524.4,263.19l0,-7.16"/>
</g>
<g fill="#000000" stroke="#ffffff" stroke-linejoin="miter" stroke-width="1.25">
<use xlink:href="#p4" x="77.95" y="39.82"/>
<use xlink:href="#p4" x="133.75" y="91.01"/>
<use xlink:href="#p4" x="189.56" y="133.53"/>
<use xlink:href="#p4" x="245.37" y="172.13"/>
<use xlink:href="#p4" x="301.18" y="199.02"/>
<use xlink:href="#p4" x="356.98" y="217.84"/>
<use xlink:href="#p4" x="412.79" y="234.94"/>
<use xlink:href="#p4" x="468.6" y="249.45"/>
<use xlink:href="#p4" x="524.4" y="259.61"/>
</g>
</g>
<g clip-path="url(#c0)">
<g fill="none" stroke-linecap="butt" stroke-width="1.25">
<path d="M77.95,460.62l0,-453.54"/>
<path d="M77.95,458.7l3.75,0M77.95,436.12l3.75,0M77.95,413.54l3.75,0M77.95,390.96l3.75,0M77.95,368.38l3.75,0M77.95,345.79l3.75,0M77.95,323.21l3.75,0M77.95,300.63l3.75,0M77.95,278.05l3.75,0M77.95,255.47l3.75,0M77.95,232.89l3.75,0M77.95,210.31l3.75,0M77.95,187.73l3.75,0M77.95,165.15l3.75,0M77.95,142.57l3.75,0M77.95,119.99l3.75,0M77.95,97.41l3.75,0M77.95,74.82l3.75,0M77.95,52.24l3.75,0M77.95,29.66l3.75,0M77.95,7.08l3.75,0"/>
<path d="M77.95,458.7l7.5,0M77.95,368.38l7.5,0M77.95,278.05l7.5,0M77.95,187.73l7.5,0M77.95,97.41l7.5,0M77.95,7.08l7.5,0"/>
<path d="M524.4,460.62l0,-453.54"/>
<path d="M524.4,458.7l-3.75,0M524.4,436.12l-3.75,0M524.4,413.54l-3.75,0M524.4,390.96l-3.75,0M524.4,368.38l-3.75,0M524.4,345.79l-3.75,0M524.4,323.21l-3.75,0M524.4,300.63l-3.75,0M524.4,278.05l-3.75,0M524.4,255.47l-3.75,0M524.4,232.89l-3.75,0M524.4,210.31l-3.75,0M524.4,187.73l-3.75,0M524.4,165.15l-3.75,0M524.4,142.57l-3.75,0M524.4,119.99l-3.75,0M524.4,97.41l-3.75,0M524.4,74.82l-3.75,0M524.4,52.24l-3.75,0M524.4,29.66l-3.75,0M524.4,7.08l-3.75,0"/>
<path d="M524.4,458.7l-7.5,0M524.4,368.38l-7.5,0M524.4,278.05l-7.5,0M524.4,187.73l-7.5,0M524.4,97.41l-7.5,0M524.4,7.08l-7.5,0"/>
</g>
<g fill="none" stroke-width="1">
<g transform="matrix(0 -1 1 0 20.9 307.49)">
<path d="m2.2,-16.4l2.22,0l0,14.53l7.98,0l0,1.86l-10.2,0l0,-16.4m18.03,10.21c-1.63,0,-2.76,0.18,-3.39,0.56c-0.62,0.37,-0.94,1.01,-0.94,1.91c0,0.71,0.23,1.28,0.7,1.7c0.47,0.42,1.11,0.63,1.92,0.63c1.12,0,2.02,-0.39,2.69,-1.19c0.67,-0.79,1.01,-1.85,1.01,-3.16l0,-0.45l-2.01,0m4.03,-0.83l0,7.02l-2.02,0l0,-1.86c-0.46,0.74,-1.03,1.29,-1.72,1.65c-0.68,0.35,-1.53,0.53,-2.52,0.53c-1.26,0,-2.26,-0.35,-3,-1.06c-0.74,-0.7,-1.11,-1.65,-1.11,-2.83c0,-1.38,0.46,-2.42,1.38,-3.13c0.92,-0.7,2.3,-1.05,4.14,-1.05l2.83,0l0,-0.19c0,-0.93,-0.3,-1.64,-0.91,-2.15c-0.61,-0.5,-1.47,-0.76,-2.57,-0.76c-0.7,0,-1.38,0.08,-2.05,0.25c-0.66,0.16,-1.3,0.42,-1.92,0.75l0,-1.86c0.74,-0.28,1.45,-0.5,2.15,-0.64c0.69,-0.14,1.37,-0.21,2.03,-0.21c1.78,0,3.1,0.46,3.98,1.38c0.87,0.92,1.31,2.32,1.31,4.19m6.16,-8.77l0,3.49l4.16,0l0,1.57l-4.16,0l0,6.67c0,1,0.13,1.64,0.41,1.93c0.27,0.28,0.83,0.42,1.67,0.42l2.07,0l0,1.69l-2.07,0c-1.56,0,-2.63,-0.29,-3.23,-0.87c-0.59,-0.58,-0.88,-1.64,-0.88,-3.18l0,-6.67l-1.48,0l0,-1.57l1.48,0l0,-3.49l2.03,0m17.34,9.14l0,0.98l-9.29,0c0.08,1.39,0.5,2.45,1.25,3.18c0.75,0.72,1.79,1.09,3.13,1.09c0.77,0,1.52,-0.09,2.25,-0.28c0.72,-0.19,1.45,-0.47,2.17,-0.85l0,1.91c-0.72,0.3,-1.46,0.54,-2.23,0.7c-0.76,0.16,-1.53,0.24,-2.31,0.24c-1.96,0,-3.51,-0.57,-4.66,-1.71c-1.14,-1.14,-1.71,-2.68,-1.71,-4.63c0,-2.01,0.54,-3.61,1.63,-4.79c1.08,-1.18,2.55,-1.77,4.4,-1.77c1.65,0,2.96,0.53,3.92,1.59c0.96,1.06,1.44,2.51,1.44,4.34m-2.02,-0.59c-0.01,-1.1,-0.32,-1.98,-0.92,-2.64c-0.6,-0.65,-1.4,-0.98,-2.4,-0.98c-1.12,0,-2.03,0.31,-2.7,0.95c-0.67,0.63,-1.06,1.53,-1.16,2.69l7.2,-0.01m15.56,-0.17l0,7.42l-2.02,0l0,-7.36c0,-1.16,-0.22,-2.03,-0.68,-2.61c-0.45,-0.57,-1.13,-0.86,-2.04,-0.86c-1.09,0,-1.95,0.34,-2.58,1.04c-0.62,0.69,-0.94,1.64,-0.94,2.84l0,6.95l-2.03,0l0,-12.3l2.03,0l0,1.91c0.48,-0.73,1.05,-1.29,1.7,-1.65c0.65,-0.36,1.41,-0.54,2.26,-0.54c1.41,0,2.48,0.43,3.2,1.31c0.72,0.87,1.08,2.16,1.08,3.86m12.88,-4.4l0,1.89c-0.57,-0.31,-1.14,-0.55,-1.71,-0.7c-0.57,-0.15,-1.15,-0.23,-1.74,-0.23c-1.31,0,-2.32,0.41,-3.05,1.24c-0.72,0.83,-1.08,1.99,-1.08,3.5c0,1.5,0.36,2.66,1.08,3.49c0.72,0.83,1.74,1.24,3.05,1.24c0.58,0,1.16,-0.07,1.74,-0.23c0.57,-0.15,1.14,-0.39,1.71,-0.7l0,1.86c-0.56,0.26,-1.14,0.46,-1.75,0.59c-0.6,0.13,-1.24,0.19,-1.92,0.19c-1.85,0,-3.32,-0.58,-4.41,-1.74c-1.09,-1.16,-1.63,-2.73,-1.63,-4.71c0,-2,0.55,-3.58,1.65,-4.73c1.1,-1.15,2.61,-1.72,4.53,-1.72c0.62,0,1.23,0.06,1.82,0.19c0.59,0.12,1.16,0.32,1.72,0.57m8.63,12.97c-0.57,1.46,-1.12,2.42,-1.67,2.86c-0.54,0.44,-1.26,0.66,-2.17,0.66l-1.61,0l0,-1.69l1.18,0c0.55,0,0.98,-0.13,1.29,-0.39c0.3,-0.26,0.64,-0.88,1.02,-1.86l0.36,-0.92l-4.97,-12.1l2.14,0l3.84,9.62l3.84,-9.62l2.14,0l-5.4,13.44m20.2,-18.21c-0.98,1.68,-1.7,3.35,-2.18,5c-0.47,1.64,-0.71,3.31,-0.71,5c0,1.69,0.23,3.36,0.71,5.02c0.47,1.65,1.2,3.32,2.18,5l-1.75,0c-1.09,-1.72,-1.92,-3.41,-2.46,-5.07c-0.54,-1.66,-0.81,-3.31,-0.81,-4.95c0,-1.63,0.27,-3.27,0.81,-4.93c0.54,-1.65,1.36,-3.34,2.47,-5.07l1.75,0m13.5,7.13c0.5,-0.9,1.1,-1.57,1.81,-2.01c0.7,-0.43,1.53,-0.64,2.48,-0.64c1.28,0,2.26,0.44,2.96,1.34c0.69,0.89,1.04,2.17,1.04,3.82l0,7.42l-2.03,0l0,-7.36c0,-1.17,-0.2,-2.05,-0.62,-2.62c-0.41,-0.57,-1.05,-0.85,-1.91,-0.85c-1.04,0,-1.87,0.34,-2.48,1.04c-0.6,0.69,-0.91,1.64,-0.91,2.84l0,6.95l-2.03,0l0,-7.36c0,-1.18,-0.2,-2.06,-0.62,-2.63c-0.41,-0.56,-1.06,-0.85,-1.93,-0.85c-1.03,0,-1.85,0.34,-2.46,1.04c-0.6,0.69,-0.91,1.64,-0.91,2.83l0,6.95l-2.03,0l0,-12.3l2.03,0l0,1.91c0.46,-0.75,1.01,-1.31,1.65,-1.66c0.64,-0.35,1.4,-0.53,2.29,-0.53c0.89,0,1.65,0.22,2.27,0.68c0.62,0.45,1.08,1.11,1.38,1.97m20.18,-2l0,1.91c-0.57,-0.29,-1.16,-0.51,-1.77,-0.65c-0.61,-0.14,-1.25,-0.21,-1.91,-0.21c-1,0,-1.75,0.15,-2.25,0.46c-0.5,0.3,-0.75,0.76,-0.75,1.38c0,0.46,0.17,0.83,0.53,1.1c0.35,0.26,1.08,0.52,2.16,0.76l0.69,0.15c1.43,0.3,2.45,0.74,3.05,1.3c0.6,0.56,0.9,1.34,0.9,2.34c0,1.14,-0.45,2.04,-1.35,2.71c-0.9,0.66,-2.14,1,-3.72,1c-0.65,0,-1.34,-0.06,-2.06,-0.19c-0.71,-0.12,-1.46,-0.32,-2.25,-0.57l0,-2.08c0.74,0.38,1.48,0.67,2.2,0.87c0.72,0.19,1.44,0.29,2.15,0.29c0.95,0,1.68,-0.16,2.19,-0.48c0.51,-0.32,0.76,-0.78,0.76,-1.37c0,-0.55,-0.18,-0.97,-0.55,-1.26c-0.36,-0.29,-1.18,-0.57,-2.43,-0.84l-0.7,-0.16c-1.25,-0.26,-2.15,-0.66,-2.71,-1.21c-0.55,-0.54,-0.83,-1.29,-0.83,-2.24c0,-1.15,0.41,-2.04,1.23,-2.67c0.82,-0.63,1.98,-0.94,3.49,-0.94c0.74,0,1.45,0.05,2.1,0.16c0.65,0.1,1.26,0.27,1.82,0.49m3.55,-5.13l1.75,0c1.09,1.72,1.92,3.42,2.46,5.07c0.54,1.65,0.81,3.29,0.81,4.93c0,1.64,-0.27,3.29,-0.81,4.95c-0.54,1.66,-1.36,3.35,-2.46,5.07l-1.75,0c0.97,-1.67,1.7,-3.34,2.18,-5c0.47,-1.65,0.71,-3.33,0.71,-5.02c0,-1.69,-0.23,-3.36,-0.71,-5c-0.47,-1.64,-1.2,-3.31,-2.18,-5" fill="#000000" stroke="none" fill-opacity="1"/>
</g>
<path d="m37.66,464.64l3.22,0l0,-11.12l-3.5,0.7l0,-1.79l3.48,-0.7l1.97,0l0,12.91l3.22,0l0,1.66l-8.39,0l0,-1.66m16.6,-11.62c-1.01,0,-1.77,0.49,-2.28,1.49c-0.51,0.99,-0.76,2.5,-0.76,4.5c0,1.99,0.25,3.49,0.76,4.49c0.51,0.99,1.27,1.49,2.28,1.49c1.02,0,1.78,-0.49,2.29,-1.49c0.51,-0.99,0.76,-2.49,0.76,-4.49c0,-2,-0.25,-3.5,-0.76,-4.5c-0.51,-0.99,-1.27,-1.49,-2.29,-1.49m0,-1.56c1.63,0,2.88,0.64,3.74,1.93c0.86,1.29,1.29,3.16,1.29,5.63c0,2.45,-0.43,4.32,-1.29,5.61c-0.86,1.29,-2.11,1.93,-3.74,1.93c-1.63,0,-2.88,-0.64,-3.74,-1.93c-0.86,-1.29,-1.29,-3.16,-1.29,-5.61c0,-2.46,0.43,-4.33,1.29,-5.63c0.86,-1.29,2.11,-1.93,3.74,-1.93m12.72,1.56c-1.01,0,-1.77,0.49,-2.28,1.49c-0.51,0.99,-0.76,2.5,-0.76,4.5c0,1.99,0.25,3.49,0.76,4.49c0.51,0.99,1.27,1.49,2.28,1.49c1.02,0,1.78,-0.49,2.29,-1.49c0.51,-0.99,0.76,-2.49,0.76,-4.49c0,-2,-0.25,-3.5,-0.76,-4.5c-0.51,-0.99,-1.27,-1.49,-2.29,-1.49m0,-1.56c1.63,0,2.88,0.64,3.74,1.93c0.86,1.29,1.29,3.16,1.29,5.63c0,2.45,-0.43,4.32,-1.29,5.61c-0.86,1.29,-2.11,1.93,-3.74,1.93c-1.63,0,-2.88,-0.64,-3.74,-1.93c-0.86,-1.29,-1.29,-3.16,-1.29,-5.61c0,-2.46,0.43,-4.33,1.29,-5.63c0.86,-1.29,2.11,-1.93,3.74,-1.93" fill="#000000" stroke="none" fill-opacity="1"/>
<path d="m37.66,374.31l3.22,0l0,-11.12l-3.5,0.7l0,-1.79l3.48,-0.7l1.97,0l0,12.91l3.22,0l0,1.66l-8.39,0l0,-1.66m14.07,0l6.88,0l0,1.66l-9.25,0l0,-1.66c0.74,-0.77,1.76,-1.81,3.06,-3.11c1.29,-1.3,2.1,-2.14,2.43,-2.52c0.63,-0.7,1.07,-1.3,1.32,-1.8c0.25,-0.49,0.37,-0.97,0.37,-1.45c0,-0.77,-0.27,-1.4,-0.81,-1.89c-0.54,-0.48,-1.25,-0.73,-2.12,-0.73c-0.61,0,-1.27,0.1,-1.95,0.32c-0.68,0.21,-1.42,0.54,-2.2,0.97l0,-1.99c0.79,-0.31,1.53,-0.56,2.22,-0.72c0.69,-0.16,1.32,-0.24,1.89,-0.24c1.51,0,2.71,0.37,3.61,1.13c0.89,0.75,1.34,1.76,1.34,3.02c0,0.59,-0.11,1.16,-0.33,1.7c-0.22,0.53,-0.63,1.17,-1.22,1.9c-0.16,0.18,-0.68,0.73,-1.55,1.63c-0.87,0.9,-2.1,2.16,-3.69,3.78m15.24,-11.62c-1.01,0,-1.77,0.49,-2.28,1.49c-0.51,0.99,-0.76,2.5,-0.76,4.5c0,1.99,0.25,3.49,0.76,4.49c0.51,0.99,1.27,1.49,2.28,1.49c1.02,0,1.78,-0.49,2.29,-1.49c0.51,-0.99,0.76,-2.49,0.76,-4.49c0,-2,-0.25,-3.5,-0.76,-4.5c-0.51,-0.99,-1.27,-1.49,-2.29,-1.49m0,-1.56c1.63,0,2.88,0.64,3.74,1.93c0.86,1.29,1.29,3.16,1.29,5.63c0,2.45,-0.43,4.32,-1.29,5.61c-0.86,1.29,-2.11,1.93,-3.74,1.93c-1.63,0,-2.88,-0.64,-3.74,-1.93c-0.86,-1.29,-1.29,-3.16,-1.29,-5.61c0,-2.46,0.43,-4.33,1.29,-5.63c0.86,-1.29,2.11,-1.93,3.74,-1.93" fill="#000000" stroke="none" fill-opacity="1"/>
<path d="m37.66,283.99l3.22,0l0,-11.12l-3.5,0.7l0,-1.79l3.48,-0.7l1.97,0l0,12.91l3.22,0l0,1.66l-8.39,0l0,-1.66m17.8,-11.2l-4.98,7.78l4.98,0l0,-7.78m-0.51,-1.71l2.48,0l0,9.5l2.07,0l0,1.64l-2.07,0l0,3.43l-1.96,0l0,-3.43l-6.58,0l0,-1.9l6.06,-9.23m12.04,1.29c-1.01,0,-1.77,0.49,-2.28,1.49c-0.51,0.99,-0.76,2.5,-0.76,4.5c0,1.99,0.25,3.49,0.76,4.49c0.51,0.99,1.27,1.49,2.28,1.49c1.02,0,1.78,-0.49,2.29,-1.49c0.51,-0.99,0.76,-2.49,0.76,-4.49c0,-2,-0.25,-3.5,-0.76,-4.5c-0.51,-0.99,-1.27,-1.49,-2.29,-1.49m0,-1.56c1.63,0,2.88,0.64,3.74,1.93c0.86,1.29,1.29,3.16,1.29,5.63c0,2.45,-0.43,4.32,-1.29,5.61c-0.86,1.29,-2.11,1.93,-3.74,1.93c-1.63,0,-2.88,-0.64,-3.74,-1.93c-0.86,-1.29,-1.29,-3.16,-1.29,-5.61c0,-2.46,0.43,-4.33,1.29,-5.63c0.86,-1.29,2.11,-1.93,3.74,-1.93" fill="#000000" stroke="none" fill-opacity="1"/>
<path d="m37.66,193.67l3.22,0l0,-11.12l-3.5,0.7l0,-1.79l3.48,-0.7l1.97,0l0,12.91l3.22,0l0,1.66l-8.39,0l0,-1.66m16.84,-6.41c-0.88,0,-1.58,0.3,-2.1,0.9c-0.51,0.6,-0.77,1.43,-0.77,2.48c0,1.04,0.25,1.87,0.77,2.48c0.51,0.6,1.21,0.91,2.1,0.91c0.88,0,1.58,-0.3,2.1,-0.91c0.51,-0.6,0.77,-1.43,0.77,-2.48c0,-1.05,-0.25,-1.88,-0.77,-2.48c-0.51,-0.6,-1.21,-0.9,-2.1,-0.9m3.91,-6.18l0,1.79c-0.49,-0.23,-0.99,-0.41,-1.49,-0.53c-0.5,-0.12,-1,-0.18,-1.49,-0.18c-1.3,0,-2.29,0.43,-2.98,1.31c-0.68,0.87,-1.07,2.2,-1.17,3.98c0.38,-0.56,0.86,-1,1.44,-1.3c0.57,-0.3,1.21,-0.45,1.91,-0.45c1.46,0,2.62,0.44,3.47,1.33c0.85,0.88,1.27,2.09,1.27,3.62c0,1.49,-0.44,2.69,-1.32,3.6c-0.88,0.9,-2.06,1.35,-3.53,1.35c-1.68,0,-2.97,-0.64,-3.86,-1.93c-0.89,-1.29,-1.33,-3.16,-1.33,-5.61c0,-2.3,0.54,-4.14,1.64,-5.51c1.09,-1.37,2.56,-2.05,4.4,-2.05c0.49,0,0.99,0.04,1.49,0.14c0.5,0.09,1.02,0.24,1.57,0.43m8.56,0.97c-1.01,0,-1.77,0.49,-2.28,1.49c-0.51,0.99,-0.76,2.5,-0.76,4.5c0,1.99,0.25,3.49,0.76,4.49c0.51,0.99,1.27,1.49,2.28,1.49c1.02,0,1.78,-0.49,2.29,-1.49c0.51,-0.99,0.76,-2.49,0.76,-4.49c0,-2,-0.25,-3.5,-0.76,-4.5c-0.51,-0.99,-1.27,-1.49,-2.29,-1.49m0,-1.56c1.63,0,2.88,0.64,3.74,1.93c0.86,1.29,1.29,3.16,1.29,5.63c0,2.45,-0.43,4.32,-1.29,5.61c-0.86,1.29,-2.11,1.93,-3.74,1.93c-1.63,0,-2.88,-0.64,-3.74,-1.93c-0.86,-1.29,-1.29,-3.16,-1.29,-5.61c0,-2.46,0.43,-4.33,1.29,-5.63c0.86,-1.29,2.11,-1.93,3.74,-1.93" fill="#000000" stroke="none" fill-opacity="1"/>
<path d="m37.66,103.34l3.22,0l0,-11.12l-3.5,0.7l0,-1.79l3.48,-0.7l1.97,0l0,12.91l3.22,0l0,1.66l-8.39,0l0,-1.66m16.6,-5.26c-0.93,0,-1.67,0.25,-2.21,0.75c-0.53,0.5,-0.8,1.19,-0.8,2.07c0,0.87,0.26,1.56,0.8,2.07c0.53,0.5,1.27,0.75,2.21,0.75c0.93,0,1.67,-0.25,2.21,-0.75c0.54,-0.5,0.81,-1.19,0.81,-2.06c0,-0.87,-0.26,-1.56,-0.8,-2.07c-0.53,-0.5,-1.27,-0.75,-2.22,-0.75m-1.97,-0.84c-0.84,-0.2,-1.5,-0.6,-1.97,-1.18c-0.47,-0.57,-0.7,-1.28,-0.7,-2.11c0,-1.16,0.41,-2.08,1.24,-2.76c0.82,-0.67,1.96,-1.01,3.41,-1.01c1.45,0,2.59,0.33,3.41,1.01c0.82,0.67,1.23,1.59,1.23,2.76c0,0.83,-0.23,1.53,-0.7,2.11c-0.47,0.57,-1.12,0.97,-1.96,1.18c0.95,0.22,1.69,0.65,2.22,1.29c0.53,0.64,0.79,1.43,0.79,2.36c0,1.41,-0.43,2.49,-1.29,3.25c-0.86,0.75,-2.09,1.13,-3.7,1.13c-1.6,0,-2.84,-0.37,-3.7,-1.13c-0.86,-0.75,-1.29,-1.83,-1.29,-3.25c0,-0.93,0.26,-1.71,0.8,-2.36c0.53,-0.64,1.27,-1.07,2.22,-1.29m-0.72,-3.11c0,0.75,0.23,1.34,0.7,1.76c0.47,0.42,1.13,0.63,1.98,0.63c0.84,0,1.5,-0.21,1.98,-0.63c0.47,-0.42,0.71,-1.01,0.71,-1.76c0,-0.75,-0.23,-1.34,-0.71,-1.76c-0.47,-0.42,-1.14,-0.63,-1.98,-0.63c-0.85,0,-1.51,0.21,-1.98,0.63c-0.47,0.42,-0.7,1.01,-0.7,1.76m15.41,-2.4c-1.01,0,-1.77,0.49,-2.28,1.49c-0.51,0.99,-0.76,2.5,-0.76,4.5c0,1.99,0.25,3.49,0.76,4.49c0.51,0.99,1.27,1.49,2.28,1.49c1.02,0,1.78,-0.49,2.29,-1.49c0.51,-0.99,0.76,-2.49,0.76,-4.49c0,-2,-0.25,-3.5,-0.76,-4.5c-0.51,-0.99,-1.27,-1.49,-2.29,-1.49m0,-1.56c1.63,0,2.88,0.64,3.74,1.93c0.86,1.29,1.29,3.16,1.29,5.63c0,2.45,-0.43,4.32,-1.29,5.61c-0.86,1.29,-2.11,1.93,-3.74,1.93c-1.63,0,-2.88,-0.64,-3.74,-1.93c-0.86,-1.29,-1.29,-3.16,-1.29,-5.61c0,-2.46,0.43,-4.33,1.29,-5.63c0.86,-1.29,2.11,-1.93,3.74,-1.93" fill="#000000" stroke="none" fill-opacity="1"/>
<path d="m39.01,18.19l6.88,0l0,1.66l-9.25,0l0,-1.66c0.74,-0.77,1.76,-1.81,3.06,-3.11c1.29,-1.3,2.1,-2.14,2.43,-2.52c0.63,-0.7,1.07,-1.3,1.32,-1.8c0.25,-0.49,0.37,-0.97,0.37,-1.45c0,-0.77,-0.27,-1.4,-0.81,-1.89c-0.54,-0.48,-1.25,-0.73,-2.12,-0.73c-0.61,0,-1.27,0.1,-1.95,0.32c-0.68,0.21,-1.42,0.54,-2.2,0.97l0,-1.99c0.79,-0.31,1.53,-0.56,2.22,-0.72c0.69,-0.16,1.32,-0.24,1.89,-0.24c1.51,0,2.71,0.37,3.61,1.13c0.89,0.75,1.34,1.76,1.34,3.02c0,0.59,-0.11,1.16,-0.33,1.7c-0.22,0.53,-0.63,1.17,-1.22,1.9c-0.16,0.18,-0.68,0.73,-1.55,1.63c-0.87,0.9,-2.1,2.16,-3.69,3.78m15.24,-11.62c-1.01,0,-1.77,0.49,-2.28,1.49c-0.51,0.99,-0.76,2.5,-0.76,4.5c0,1.99,0.25,3.49,0.76,4.49c0.51,0.99,1.27,1.49,2.28,1.49c1.02,0,1.78,-0.49,2.29,-1.49c0.51,-0.99,0.76,-2.49,0.76,-4.49c0,-2,-0.25,-3.5,-0.76,-4.5c-0.51,-0.99,-1.27,-1.49,-2.29,-1.49m0,-1.56c1.63,0,2.88,0.64,3.74,1.93c0.86,1.29,1.29,3.16,1.29,5.63c0,2.45,-0.43,4.32,-1.29,5.61c-0.86,1.29,-2.11,1.93,-3.74,1.93c-1.63,0,-2.88,-0.64,-3.74,-1.93c-0.86,-1.29,-1.29,-3.16,-1.29,-5.61c0,-2.46,0.43,-4.33,1.29,-5.63c0.86,-1.29,2.11,-1.93,3.74,-1.93m12.72,1.56c-1.01,0,-1.77,0.49,-2.28,1.49c-0.51,0.99,-0.76,2.5,-0.76,4.5c0,1.99,0.25,3.49,0.76,4.49c0.51,0.99,1.27,1.49,2.28,1.49c1.02,0,1.78,-0.49,2.29,-1.49c0.51,-0.99,0.76,-2.49,0.76,-4.49c0,-2,-0.25,-3.5,-0.76,-4.5c-0.51,-0.99,-1.27,-1.49,-2.29,-1.49m0,-1.56c1.63,0,2.88,0.64,3.74,1.93c0.86,1.29,1.29,3.16,1.29,5.63c0,2.45,-0.43,4.32,-1.29,5.61c-0.86,1.29,-2.11,1.93,-3.74,1.93c-1.63,0,-2.88,-0.64,-3.74,-1.93c-0.86,-1.29,-1.29,-3.16,-1.29,-5.61c0,-2.46,0.43,-4.33,1.29,-5.63c0.86,-1.29,2.11,-1.93,3.74,-1.93" fill="#000000" stroke="none" fill-opacity="1"/>
</g>
<g fill="none" stroke-linecap="butt" stroke-width="1.25">
<path d="M77.95,460.62l446.45,0"/>
<path d="M77.95,460.62l0,-3.75M105.85,460.62l0,-3.75M133.75,460.62l0,-3.75M161.66,460.62l0,-3.75M189.56,460.62l0,-3.75M217.47,460.62l0,-3.75M245.37,460.62l0,-3.75M273.27,460.62l0,-3.75M301.18,460.62l0,-3.75M329.08,460.62l0,-3.75M356.98,460.62l0,-3.75M384.89,460.62l0,-3.75M412.79,460.62l0,-3.75M440.69,460.62l0,-3.75M468.6,460.62l0,-3.75M496.5,460.62l0,-3.75M524.4,460.62l0,-3.75"/>
<path d="M77.95,460.62l0,-7.5M189.56,460.62l0,-7.5M301.18,460.62l0,-7.5M412.79,460.62l0,-7.5M524.4,460.62l0,-7.5"/>
<path d="M77.95,7.08l446.45,0"/>
<path d="M77.95,7.08l0,3.75M105.85,7.08l0,3.75M133.75,7.08l0,3.75M161.66,7.08l0,3.75M189.56,7.08l0,3.75M217.47,7.08l0,3.75M245.37,7.08l0,3.75M273.27,7.08l0,3.75M301.18,7.08l0,3.75M329.08,7.08l0,3.75M356.98,7.08l0,3.75M384.89,7.08l0,3.75M412.79,7.08l0,3.75M440.69,7.08l0,3.75M468.6,7.08l0,3.75M496.5,7.08l0,3.75M524.4,7.08l0,3.75"/>
<path d="M77.95,7.08l0,7.5M189.56,7.08l0,7.5M301.18,7.08l0,7.5M412.79,7.08l0,7.5M524.4,7.08l0,7.5"/>
</g>
<g fill="none" stroke-width="1">
<path d="m184.92,499.95l0,12.75l2.67,0c2.26,0,3.92,-0.51,4.97,-1.53c1.05,-1.02,1.57,-2.64,1.57,-4.85c0,-2.19,-0.52,-3.8,-1.57,-4.82c-1.05,-1.02,-2.7,-1.53,-4.97,-1.53l-2.67,0m-2.22,-1.82l4.55,0c3.17,0,5.51,0.66,6.99,1.98c1.48,1.32,2.23,3.38,2.23,6.2c0,2.82,-0.74,4.9,-2.24,6.22c-1.49,1.32,-3.82,1.98,-6.98,1.98l-4.55,0l0,-16.4m22,5.51c-1.08,0,-1.94,0.42,-2.57,1.26c-0.62,0.84,-0.94,2,-0.94,3.47c0,1.47,0.31,2.63,0.93,3.47c0.62,0.84,1.48,1.26,2.57,1.26c1.07,0,1.92,-0.42,2.55,-1.27c0.63,-0.84,0.94,-2,0.94,-3.47c0,-1.45,-0.31,-2.61,-0.94,-3.46c-0.63,-0.85,-1.48,-1.27,-2.55,-1.27m0,-1.71c1.75,0,3.13,0.57,4.14,1.71c1,1.14,1.5,2.72,1.5,4.74c0,2.01,-0.5,3.59,-1.5,4.73c-1,1.14,-2.38,1.71,-4.14,1.71c-1.76,0,-3.14,-0.57,-4.14,-1.71c-0.99,-1.14,-1.49,-2.72,-1.49,-4.73c0,-2.02,0.49,-3.6,1.49,-4.74c0.99,-1.14,2.38,-1.71,4.14,-1.71m10.95,10.75l0,6.52l-2.03,0l0,-16.98l2.03,0l0,1.86c0.42,-0.73,0.96,-1.27,1.6,-1.63c0.64,-0.35,1.42,-0.53,2.32,-0.53c1.49,0,2.7,0.59,3.64,1.77c0.93,1.18,1.4,2.74,1.4,4.68c0,1.93,-0.46,3.49,-1.4,4.67c-0.93,1.18,-2.14,1.77,-3.64,1.77c-0.9,0,-1.67,-0.17,-2.32,-0.53c-0.64,-0.35,-1.18,-0.89,-1.6,-1.63m6.87,-4.29c0,-1.48,-0.3,-2.65,-0.91,-3.5c-0.61,-0.84,-1.45,-1.26,-2.52,-1.26c-1.06,0,-1.9,0.42,-2.52,1.26c-0.61,0.84,-0.91,2.01,-0.91,3.5c0,1.48,0.3,2.65,0.91,3.49c0.61,0.84,1.45,1.26,2.52,1.26c1.06,0,1.91,-0.42,2.52,-1.26c0.61,-0.84,0.91,-2.01,0.91,-3.49m11.04,-0.04c-1.63,0,-2.76,0.18,-3.39,0.56c-0.62,0.37,-0.94,1.01,-0.94,1.91c0,0.71,0.23,1.28,0.7,1.7c0.47,0.42,1.11,0.63,1.92,0.63c1.12,0,2.02,-0.39,2.69,-1.19c0.67,-0.79,1.01,-1.85,1.01,-3.16l0,-0.45l-2.01,0m4.03,-0.83l0,7.02l-2.02,0l0,-1.86c-0.46,0.74,-1.03,1.29,-1.72,1.65c-0.68,0.35,-1.53,0.53,-2.52,0.53c-1.26,0,-2.26,-0.35,-3,-1.06c-0.74,-0.7,-1.11,-1.65,-1.11,-2.83c0,-1.38,0.46,-2.42,1.38,-3.13c0.92,-0.7,2.3,-1.05,4.14,-1.05l2.83,0l0,-0.19c0,-0.93,-0.3,-1.64,-0.91,-2.15c-0.61,-0.5,-1.47,-0.76,-2.57,-0.76c-0.7,0,-1.38,0.08,-2.05,0.25c-0.66,0.16,-1.3,0.42,-1.92,0.75l0,-1.86c0.74,-0.28,1.45,-0.5,2.15,-0.64c0.69,-0.14,1.37,-0.21,2.03,-0.21c1.78,0,3.1,0.46,3.98,1.38c0.87,0.92,1.31,2.32,1.31,4.19m13.74,-2.92c0.5,-0.9,1.1,-1.57,1.81,-2.01c0.7,-0.43,1.53,-0.64,2.48,-0.64c1.28,0,2.26,0.44,2.96,1.34c0.69,0.89,1.04,2.17,1.04,3.82l0,7.42l-2.03,0l0,-7.36c0,-1.17,-0.2,-2.05,-0.62,-2.62c-0.41,-0.57,-1.05,-0.85,-1.91,-0.85c-1.04,0,-1.87,0.34,-2.48,1.04c-0.6,0.69,-0.91,1.64,-0.91,2.84l0,6.95l-2.03,0l0,-7.36c0,-1.18,-0.2,-2.06,-0.62,-2.63c-0.41,-0.56,-1.06,-0.85,-1.93,-0.85c-1.03,0,-1.85,0.34,-2.46,1.04c-0.6,0.69,-0.91,1.64,-0.91,2.83l0,6.95l-2.03,0l0,-12.3l2.03,0l0,1.91c0.46,-0.75,1.01,-1.31,1.65,-1.66c0.64,-0.35,1.4,-0.53,2.29,-0.53c0.89,0,1.65,0.22,2.27,0.68c0.62,0.45,1.08,1.11,1.38,1.97m12.33,-2.36l2.02,0l0,12.3l-2.02,0l0,-12.3m0,-4.79l2.02,0l0,2.56l-2.02,0l0,-2.56m16.47,9.66l0,7.42l-2.02,0l0,-7.36c0,-1.16,-0.22,-2.03,-0.68,-2.61c-0.45,-0.57,-1.13,-0.86,-2.04,-0.86c-1.09,0,-1.95,0.34,-2.58,1.04c-0.62,0.69,-0.94,1.64,-0.94,2.84l0,6.95l-2.03,0l0,-12.3l2.03,0l0,1.91c0.48,-0.73,1.05,-1.29,1.7,-1.65c0.65,-0.36,1.41,-0.54,2.26,-0.54c1.41,0,2.48,0.43,3.2,1.31c0.72,0.87,1.08,2.16,1.08,3.86m14.55,0.76l0,0.98l-9.29,0c0.08,1.39,0.5,2.45,1.25,3.18c0.75,0.72,1.79,1.09,3.13,1.09c0.77,0,1.52,-0.09,2.25,-0.28c0.72,-0.19,1.45,-0.47,2.17,-0.85l0,1.91c-0.72,0.3,-1.46,0.54,-2.23,0.7c-0.76,0.16,-1.53,0.24,-2.31,0.24c-1.96,0,-3.51,-0.57,-4.66,-1.71c-1.14,-1.14,-1.71,-2.68,-1.71,-4.63c0,-2.01,0.54,-3.61,1.63,-4.79c1.08,-1.18,2.55,-1.77,4.4,-1.77c1.65,0,2.96,0.53,3.92,1.59c0.96,1.06,1.44,2.51,1.44,4.34m-2.02,-0.59c-0.01,-1.1,-0.32,-1.98,-0.92,-2.64c-0.6,-0.65,-1.4,-0.98,-2.4,-0.98c-1.12,0,-2.03,0.31,-2.7,0.95c-0.67,0.63,-1.06,1.53,-1.16,2.69l7.2,-0.01m14.44,5.4l0,6.52l-2.03,0l0,-16.98l2.03,0l0,1.86c0.42,-0.73,0.96,-1.27,1.6,-1.63c0.64,-0.35,1.42,-0.53,2.32,-0.53c1.49,0,2.7,0.59,3.64,1.77c0.93,1.18,1.4,2.74,1.4,4.68c0,1.93,-0.46,3.49,-1.4,4.67c-0.93,1.18,-2.14,1.77,-3.64,1.77c-0.9,0,-1.67,-0.17,-2.32,-0.53c-0.64,-0.35,-1.18,-0.89,-1.6,-1.63m6.87,-4.29c0,-1.48,-0.3,-2.65,-0.91,-3.5c-0.61,-0.84,-1.45,-1.26,-2.52,-1.26c-1.06,0,-1.9,0.42,-2.52,1.26c-0.61,0.84,-0.91,2.01,-0.91,3.5c0,1.48,0.3,2.65,0.91,3.49c0.61,0.84,1.45,1.26,2.52,1.26c1.06,0,1.91,-0.42,2.52,-1.26c0.61,-0.84,0.91,-2.01,0.91,-3.49m11.04,-0.04c-1.63,0,-2.76,0.18,-3.39,0.56c-0.62,0.37,-0.94,1.01,-0.94,1.91c0,0.71,0.23,1.28,0.7,1.7c0.47,0.42,1.11,0.63,1.92,0.63c1.12,0,2.02,-0.39,2.69,-1.19c0.67,-0.79,1.01,-1.85,1.01,-3.16l0,-0.45l-2.01,0m4.03,-0.83l0,7.02l-2.02,0l0,-1.86c-0.46,0.74,-1.03,1.29,-1.72,1.65c-0.68,0.35,-1.53,0.53,-2.52,0.53c-1.26,0,-2.26,-0.35,-3,-1.06c-0.74,-0.7,-1.11,-1.65,-1.11,-2.83c0,-1.38,0.46,-2.42,1.38,-3.13c0.92,-0.7,2.3,-1.05,4.14,-1.05l2.83,0l0,-0.19c0,-0.93,-0.3,-1.64,-0.91,-2.15c-0.61,-0.5,-1.47,-0.76,-2.57,-0.76c-0.7,0,-1.38,0.08,-2.05,0.25c-0.66,0.16,-1.3,0.42,-1.92,0.75l0,-1.86c0.74,-0.28,1.45,-0.5,2.15,-0.64c0.69,-0.14,1.37,-0.21,2.03,-0.21c1.78,0,3.1,0.46,3.98,1.38c0.87,0.92,1.31,2.32,1.31,4.19m11.29,-3.39c-0.22,-0.13,-0.47,-0.22,-0.74,-0.29c-0.26,-0.06,-0.56,-0.09,-0.88,-0.09c-1.14,0,-2.01,0.37,-2.63,1.11c-0.61,0.74,-0.91,1.81,-0.91,3.2l0,6.48l-2.03,0l0,-12.3l2.03,0l0,1.91c0.42,-0.74,0.97,-1.3,1.65,-1.66c0.68,-0.36,1.5,-0.54,2.48,-0.54c0.13,0,0.29,0,0.46,0.02c0.16,0.01,0.35,0.04,0.56,0.08l0.01,2.07m7.71,4.22c-1.63,0,-2.76,0.18,-3.39,0.56c-0.62,0.37,-0.94,1.01,-0.94,1.91c0,0.71,0.23,1.28,0.7,1.7c0.47,0.42,1.11,0.63,1.92,0.63c1.12,0,2.02,-0.39,2.69,-1.19c0.67,-0.79,1.01,-1.85,1.01,-3.16l0,-0.45l-2.01,0m4.03,-0.83l0,7.02l-2.02,0l0,-1.86c-0.46,0.74,-1.03,1.29,-1.72,1.65c-0.68,0.35,-1.53,0.53,-2.52,0.53c-1.26,0,-2.26,-0.35,-3,-1.06c-0.74,-0.7,-1.11,-1.65,-1.11,-2.83c0,-1.38,0.46,-2.42,1.38,-3.13c0.92,-0.7,2.3,-1.05,4.14,-1.05l2.83,0l0,-0.19c0,-0.93,-0.3,-1.64,-0.91,-2.15c-0.61,-0.5,-1.47,-0.76,-2.57,-0.76c-0.7,0,-1.38,0.08,-2.05,0.25c-0.66,0.16,-1.3,0.42,-1.92,0.75l0,-1.86c0.74,-0.28,1.45,-0.5,2.15,-0.64c0.69,-0.14,1.37,-0.21,2.03,-0.21c1.78,0,3.1,0.46,3.98,1.38c0.87,0.92,1.31,2.32,1.31,4.19m13.74,-2.92c0.5,-0.9,1.1,-1.57,1.81,-2.01c0.7,-0.43,1.53,-0.64,2.48,-0.64c1.28,0,2.26,0.44,2.96,1.34c0.69,0.89,1.04,2.17,1.04,3.82l0,7.42l-2.03,0l0,-7.36c0,-1.17,-0.2,-2.05,-0.62,-2.62c-0.41,-0.57,-1.05,-0.85,-1.91,-0.85c-1.04,0,-1.87,0.34,-2.48,1.04c-0.6,0.69,-0.91,1.64,-0.91,2.84l0,6.95l-2.03,0l0,-7.36c0,-1.18,-0.2,-2.06,-0.62,-2.63c-0.41,-0.56,-1.06,-0.85,-1.93,-0.85c-1.03,0,-1.85,0.34,-2.46,1.04c-0.6,0.69,-0.91,1.64,-0.91,2.83l0,6.95l-2.03,0l0,-12.3l2.03,0l0,1.91c0.46,-0.75,1.01,-1.31,1.65,-1.66c0.64,-0.35,1.4,-0.53,2.29,-0.53c0.89,0,1.65,0.22,2.27,0.68c0.62,0.45,1.08,1.11,1.38,1.97m22.86,3.28l0,0.98l-9.29,0c0.08,1.39,0.5,2.45,1.25,3.18c0.75,0.72,1.79,1.09,3.13,1.09c0.77,0,1.52,-0.09,2.25,-0.28c0.72,-0.19,1.45,-0.47,2.17,-0.85l0,1.91c-0.72,0.3,-1.46,0.54,-2.23,0.7c-0.76,0.16,-1.53,0.24,-2.31,0.24c-1.96,0,-3.51,-0.57,-4.66,-1.71c-1.14,-1.14,-1.71,-2.68,-1.71,-4.63c0,-2.01,0.54,-3.61,1.63,-4.79c1.08,-1.18,2.55,-1.77,4.4,-1.77c1.65,0,2.96,0.53,3.92,1.59c0.96,1.06,1.44,2.51,1.44,4.34m-2.02,-0.59c-0.01,-1.1,-0.32,-1.98,-0.92,-2.64c-0.6,-0.65,-1.4,-0.98,-2.4,-0.98c-1.12,0,-2.03,0.31,-2.7,0.95c-0.67,0.63,-1.06,1.53,-1.16,2.69l7.2,-0.01m7.33,-8.54l0,3.49l4.16,0l0,1.57l-4.16,0l0,6.67c0,1,0.13,1.64,0.41,1.93c0.27,0.28,0.83,0.42,1.67,0.42l2.07,0l0,1.69l-2.07,0c-1.56,0,-2.63,-0.29,-3.23,-0.87c-0.59,-0.58,-0.88,-1.64,-0.88,-3.18l0,-6.67l-1.48,0l0,-1.57l1.48,0l0,-3.49l2.03,0m17.34,9.14l0,0.98l-9.29,0c0.08,1.39,0.5,2.45,1.25,3.18c0.75,0.72,1.79,1.09,3.13,1.09c0.77,0,1.52,-0.09,2.25,-0.28c0.72,-0.19,1.45,-0.47,2.17,-0.85l0,1.91c-0.72,0.3,-1.46,0.54,-2.23,0.7c-0.76,0.16,-1.53,0.24,-2.31,0.24c-1.96,0,-3.51,-0.57,-4.66,-1.71c-1.14,-1.14,-1.71,-2.68,-1.71,-4.63c0,-2.01,0.54,-3.61,1.63,-4.79c1.08,-1.18,2.55,-1.77,4.4,-1.77c1.65,0,2.96,0.53,3.92,1.59c0.96,1.06,1.44,2.51,1.44,4.34m-2.02,-0.59c-0.01,-1.1,-0.32,-1.98,-0.92,-2.64c-0.6,-0.65,-1.4,-0.98,-2.4,-0.98c-1.12,0,-2.03,0.31,-2.7,0.95c-0.67,0.63,-1.06,1.53,-1.16,2.69l7.2,-0.01m12.46,-3.16c-0.22,-0.13,-0.47,-0.22,-0.74,-0.29c-0.26,-0.06,-0.56,-0.09,-0.88,-0.09c-1.14,0,-2.01,0.37,-2.63,1.11c-0.61,0.74,-0.91,1.81,-0.91,3.2l0,6.48l-2.03,0l0,-12.3l2.03,0l0,1.91c0.42,-0.74,0.97,-1.3,1.65,-1.66c0.68,-0.36,1.5,-0.54,2.48,-0.54c0.13,0,0.29,0,0.46,0.02c0.16,0.01,0.35,0.04,0.56,0.08l0.01,2.07" fill="#000000" stroke="none" fill-opacity="1"/>
<path d="m68.4,470.54c-1.01,0,-1.77,0.49,-2.28,1.49c-0.51,0.99,-0.76,2.5,-0.76,4.5c0,1.99,0.25,3.49,0.76,4.49c0.51,0.99,1.27,1.49,2.28,1.49c1.02,0,1.78,-0.49,2.29,-1.49c0.51,-0.99,0.76,-2.49,0.76,-4.49c0,-2,-0.25,-3.5,-0.76,-4.5c-0.51,-0.99,-1.27,-1.49,-2.29,-1.49m0,-1.56c1.63,0,2.88,0.64,3.74,1.93c0.86,1.29,1.29,3.16,1.29,5.63c0,2.45,-0.43,4.32,-1.29,5.61c-0.86,1.29,-2.11,1.93,-3.74,1.93c-1.63,0,-2.88,-0.64,-3.74,-1.93c-0.86,-1.29,-1.29,-3.16,-1.29,-5.61c0,-2.46,0.43,-4.33,1.29,-5.63c0.86,-1.29,2.11,-1.93,3.74,-1.93m8.5,12.36l2.06,0l0,2.48l-2.06,0l0,-2.48m8.05,0.82l6.88,0l0,1.66l-9.25,0l0,-1.66c0.74,-0.77,1.76,-1.81,3.06,-3.11c1.29,-1.3,2.1,-2.14,2.43,-2.52c0.63,-0.7,1.07,-1.3,1.32,-1.8c0.25,-0.49,0.37,-0.97,0.37,-1.45c0,-0.77,-0.27,-1.4,-0.81,-1.89c-0.54,-0.48,-1.25,-0.73,-2.12,-0.73c-0.61,0,-1.27,0.1,-1.95,0.32c-0.68,0.21,-1.42,0.54,-2.2,0.97l0,-1.99c0.79,-0.31,1.53,-0.56,2.22,-0.72c0.69,-0.16,1.32,-0.24,1.89,-0.24c1.51,0,2.71,0.37,3.61,1.13c0.89,0.75,1.34,1.76,1.34,3.02c0,0.59,-0.11,1.16,-0.33,1.7c-0.22,0.53,-0.63,1.17,-1.22,1.9c-0.16,0.18,-0.68,0.73,-1.55,1.63c-0.87,0.9,-2.1,2.16,-3.69,3.78" fill="#000000" stroke="none" fill-opacity="1"/>
<path d="m180.02,470.54c-1.01,0,-1.77,0.49,-2.28,1.49c-0.51,0.99,-0.76,2.5,-0.76,4.5c0,1.99,0.25,3.49,0.76,4.49c0.51,0.99,1.27,1.49,2.28,1.49c1.02,0,1.78,-0.49,2.29,-1.49c0.51,-0.99,0.76,-2.49,0.76,-4.49c0,-2,-0.25,-3.5,-0.76,-4.5c-0.51,-0.99,-1.27,-1.49,-2.29,-1.49m0,-1.56c1.63,0,2.88,0.64,3.74,1.93c0.86,1.29,1.29,3.16,1.29,5.63c0,2.45,-0.43,4.32,-1.29,5.61c-0.86,1.29,-2.11,1.93,-3.74,1.93c-1.63,0,-2.88,-0.64,-3.74,-1.93c-0.86,-1.29,-1.29,-3.16,-1.29,-5.61c0,-2.46,0.43,-4.33,1.29,-5.63c0.86,-1.29,2.11,-1.93,3.74,-1.93m8.5,12.36l2.06,0l0,2.48l-2.06,0l0,-2.48m11.77,-10.37l-4.98,7.78l4.98,0l0,-7.78m-0.51,-1.71l2.48,0l0,9.5l2.07,0l0,1.64l-2.07,0l0,3.43l-1.96,0l0,-3.43l-6.58,0l0,-1.9l6.06,-9.23" fill="#000000" stroke="none" fill-opacity="1"/>
<path d="m291.63,470.54c-1.01,0,-1.77,0.49,-2.28,1.49c-0.51,0.99,-0.76,2.5,-0.76,4.5c0,1.99,0.25,3.49,0.76,4.49c0.51,0.99,1.27,1.49,2.28,1.49c1.02,0,1.78,-0.49,2.29,-1.49c0.51,-0.99,0.76,-2.49,0.76,-4.49c0,-2,-0.25,-3.5,-0.76,-4.5c-0.51,-0.99,-1.27,-1.49,-2.29,-1.49m0,-1.56c1.63,0,2.88,0.64,3.74,1.93c0.86,1.29,1.29,3.16,1.29,5.63c0,2.45,-0.43,4.32,-1.29,5.61c-0.86,1.29,-2.11,1.93,-3.74,1.93c-1.63,0,-2.88,-0.64,-3.74,-1.93c-0.86,-1.29,-1.29,-3.16,-1.29,-5.61c0,-2.46,0.43,-4.33,1.29,-5.63c0.86,-1.29,2.11,-1.93,3.74,-1.93m8.5,12.36l2.06,0l0,2.48l-2.06,0l0,-2.48m10.81,-5.59c-0.88,0,-1.58,0.3,-2.1,0.9c-0.51,0.6,-0.77,1.43,-0.77,2.48c0,1.04,0.25,1.87,0.77,2.48c0.51,0.6,1.21,0.91,2.1,0.91c0.88,0,1.58,-0.3,2.1,-0.91c0.51,-0.6,0.77,-1.43,0.77,-2.48c0,-1.05,-0.25,-1.88,-0.77,-2.48c-0.51,-0.6,-1.21,-0.9,-2.1,-0.9m3.91,-6.18l0,1.79c-0.49,-0.23,-0.99,-0.41,-1.49,-0.53c-0.5,-0.12,-1,-0.18,-1.49,-0.18c-1.3,0,-2.29,0.43,-2.98,1.31c-0.68,0.87,-1.07,2.2,-1.17,3.98c0.38,-0.56,0.86,-1,1.44,-1.3c0.57,-0.3,1.21,-0.45,1.91,-0.45c1.46,0,2.62,0.44,3.47,1.33c0.85,0.88,1.27,2.09,1.27,3.62c0,1.49,-0.44,2.69,-1.32,3.6c-0.88,0.9,-2.06,1.35,-3.53,1.35c-1.68,0,-2.97,-0.64,-3.86,-1.93c-0.89,-1.29,-1.33,-3.16,-1.33,-5.61c0,-2.3,0.54,-4.14,1.64,-5.51c1.09,-1.37,2.56,-2.05,4.4,-2.05c0.49,0,0.99,0.04,1.49,0.14c0.5,0.09,1.02,0.24,1.57,0.43" fill="#000000" stroke="none" fill-opacity="1"/>
<path d="m403.25,470.54c-1.01,0,-1.77,0.49,-2.28,1.49c-0.51,0.99,-0.76,2.5,-0.76,4.5c0,1.99,0.25,3.49,0.76,4.49c0.51,0.99,1.27,1.49,2.28,1.49c1.02,0,1.78,-0.49,2.29,-1.49c0.51,-0.99,0.76,-2.49,0.76,-4.49c0,-2,-0.25,-3.5,-0.76,-4.5c-0.51,-0.99,-1.27,-1.49,-2.29,-1.49m0,-1.56c1.63,0,2.88,0.64,3.74,1.93c0.86,1.29,1.29,3.16,1.29,5.63c0,2.45,-0.43,4.32,-1.29,5.61c-0.86,1.29,-2.11,1.93,-3.74,1.93c-1.63,0,-2.88,-0.64,-3.74,-1.93c-0.86,-1.29,-1.29,-3.16,-1.29,-5.61c0,-2.46,0.43,-4.33,1.29,-5.63c0.86,-1.29,2.11,-1.93,3.74,-1.93m8.5,12.36l2.06,0l0,2.48l-2.06,0l0,-2.48m10.57,-4.44c-0.93,0,-1.67,0.25,-2.21,0.75c-0.53,0.5,-0.8,1.19,-0.8,2.07c0,0.87,0.26,1.56,0.8,2.07c0.53,0.5,1.27,0.75,2.21,0.75c0.93,0,1.67,-0.25,2.21,-0.75c0.54,-0.5,0.81,-1.19,0.81,-2.06c0,-0.87,-0.26,-1.56,-0.8,-2.07c-0.53,-0.5,-1.27,-0.75,-2.22,-0.75m-1.97,-0.84c-0.84,-0.2,-1.5,-0.6,-1.97,-1.18c-0.47,-0.57,-0.7,-1.28,-0.7,-2.11c0,-1.16,0.41,-2.08,1.24,-2.76c0.82,-0.67,1.96,-1.01,3.41,-1.01c1.45,0,2.59,0.33,3.41,1.01c0.82,0.67,1.23,1.59,1.23,2.76c0,0.83,-0.23,1.53,-0.7,2.11c-0.47,0.57,-1.12,0.97,-1.96,1.18c0.95,0.22,1.69,0.65,2.22,1.29c0.53,0.64,0.79,1.43,0.79,2.36c0,1.41,-0.43,2.49,-1.29,3.25c-0.86,0.75,-2.09,1.13,-3.7,1.13c-1.6,0,-2.84,-0.37,-3.7,-1.13c-0.86,-0.75,-1.29,-1.83,-1.29,-3.25c0,-0.93,0.26,-1.71,0.8,-2.36c0.53,-0.64,1.27,-1.07,2.22,-1.29m-0.72,-3.11c0,0.75,0.23,1.34,0.7,1.76c0.47,0.42,1.13,0.63,1.98,0.63c0.84,0,1.5,-0.21,1.98,-0.63c0.47,-0.42,0.71,-1.01,0.71,-1.76c0,-0.75,-0.23,-1.34,-0.71,-1.76c-0.47,-0.42,-1.14,-0.63,-1.98,-0.63c-0.85,0,-1.51,0.21,-1.98,0.63c-0.47,0.42,-0.7,1.01,-0.7,1.76" fill="#000000" stroke="none" fill-opacity="1"/>
<path d="m520.52,482.16l3.22,0l0,-11.12l-3.5,0.7l0,-1.79l3.48,-0.7l1.97,0l0,12.91l3.22,0l0,1.66l-8.39,0l0,-1.66" fill="#000000" stroke="none" fill-opacity="1"/>
</g>
</g>
</g>
</svg>
